<?xml version="1.0" encoding="UTF-8"?>
<!DOCTYPE svg PUBLIC "-//W3C//DTD SVG 1.1//EN" "http://www.w3.org/Graphics/SVG/1.1/DTD/svg11.dtd">
<!-- Creator: CorelDRAW X7 -->
<svg xmlns="http://www.w3.org/2000/svg" xml:space="preserve" width="0.32in" height="0.32in" version="1.1" style="shape-rendering:geometricPrecision; text-rendering:geometricPrecision; image-rendering:optimizeQuality; fill-rule:evenodd; clip-rule:evenodd"
viewBox="0 0 320 320"
 xmlns:xlink="http://www.w3.org/1999/xlink">
 <defs>
  <style type="text/css">
   <![CDATA[
    .fil0 {fill:#535156;fill-rule:nonzero}
   ]]>
  </style>
 </defs>
 <g id="Layer_x0020_1">
  <metadata id="CorelCorpID_0Corel-Layer"/>
  <path class="fil0" d="M219 83c0,3 -3,6 -6,6l-16 0c-4,0 -7,-3 -7,-6l0 -16c0,-4 3,-7 7,-7l16 0c3,0 6,3 6,7l0 16zm0 42c0,3 -3,6 -6,6l-16 0c-4,0 -7,-3 -7,-6l0 -17c0,-3 3,-6 7,-6l16 0c3,0 6,3 6,6l0 17zm0 41c0,4 -3,7 -6,7l-16 0c-4,0 -7,-3 -7,-7l0 -16c0,-3 3,-6 7,-6l16 0c3,0 6,3 6,6l0 16zm0 42c0,4 -3,7 -6,7l-16 0c-4,0 -7,-3 -7,-7l0 -16c0,-4 3,-6 7,-6l16 0c3,0 6,2 6,6l0 16zm-41 -125c0,3 -3,6 -7,6l-16 0c-4,0 -6,-3 -6,-6l0 -16c0,-4 2,-7 6,-7l16 0c4,0 7,3 7,7l0 16zm0 42c0,3 -3,6 -7,6l-16 0c-4,0 -6,-3 -6,-6l0 -17c0,-3 2,-6 6,-6l16 0c4,0 7,3 7,6l0 17zm0 41c0,4 -3,7 -7,7l-16 0c-4,0 -6,-3 -6,-7l0 -16c0,-3 2,-6 6,-6l16 0c4,0 7,3 7,6l0 16zm0 42c0,4 -3,7 -7,7l-16 0c-4,0 -6,-3 -6,-7l0 -16c0,-4 2,-6 6,-6l16 0c4,0 7,2 7,6l0 16zm-42 -125c0,3 -3,6 -7,6l-16 0c-3,0 -6,-3 -6,-6l0 -16c0,-4 3,-7 6,-7l16 0c4,0 7,3 7,7l0 16zm0 42c0,3 -3,6 -7,6l-16 0c-3,0 -6,-3 -6,-6l0 -17c0,-3 3,-6 6,-6l16 0c4,0 7,3 7,6l0 17zm0 41c0,4 -3,7 -7,7l-16 0c-3,0 -6,-3 -6,-7l0 -16c0,-3 3,-6 6,-6l16 0c4,0 7,3 7,6l0 16zm0 42c0,4 -3,7 -7,7l-16 0c-3,0 -6,-3 -6,-7l0 -16c0,-4 3,-6 6,-6l16 0c4,0 7,2 7,6l0 16zm110 -151c9,0 16,-7 16,-16l0 -2c0,-9 -7,-17 -16,-17l-165 0c-10,0 -17,8 -17,17l0 2c0,9 7,16 16,16l1 0 0 160 -1 0c-9,0 -16,8 -16,17l0 2c0,9 7,16 16,16l1 0 0 40 59 0 0 -41c0,-7 6,-13 13,-13l20 0c7,0 13,6 13,13l0 41 59 0 0 -40 1 0c9,0 16,-7 16,-16l0 -2c0,-12 -10,-17 -16,-17l-1 0 0 -160 1 0z"/>
 </g>
</svg>
