<?xml version="1.0" encoding="UTF-8"?>
<!DOCTYPE svg PUBLIC "-//W3C//DTD SVG 1.1//EN" "http://www.w3.org/Graphics/SVG/1.1/DTD/svg11.dtd">
<!-- Creator: CorelDRAW X7 -->
<svg xmlns="http://www.w3.org/2000/svg" xml:space="preserve" width="0.32in" height="0.32in" version="1.1" style="shape-rendering:geometricPrecision; text-rendering:geometricPrecision; image-rendering:optimizeQuality; fill-rule:evenodd; clip-rule:evenodd"
viewBox="0 0 320 320"
 xmlns:xlink="http://www.w3.org/1999/xlink">
 <defs>
  <style type="text/css">
   <![CDATA[
    .fil0 {fill:#535156;fill-rule:nonzero}
   ]]>
  </style>
 </defs>
 <g id="Layer_x0020_1">
  <metadata id="CorelCorpID_0Corel-Layer"/>
  <path class="fil0" d="M143 109c0,0 -44,13 -61,58 -1,2 -3,4 -6,4 -1,0 -1,0 -2,-1 -3,-1 -5,-4 -4,-7 19,-52 68,-65 70,-65 3,-1 7,1 7,4 1,3 -1,6 -4,7zm-72 80c-3,0 -6,-3 -6,-7 0,-3 3,-6 6,-6 4,0 7,3 7,6 0,4 -3,7 -7,7zm110 -101c2,-2 2,-6 2,-9 0,-11 -9,-21 -20,-21 -12,0 -21,10 -21,21 0,3 0,7 2,9 -53,9 -94,54 -96,109l229 0c-2,-55 -43,-100 -96,-109z"/>
  <path class="fil0" d="M284 209l-243 0c-10,0 -18,8 -18,18 0,10 8,18 18,18l243 0c10,0 18,-8 18,-18 0,-10 -8,-18 -18,-18z"/>
 </g>
</svg>
