<?xml version="1.0" encoding="UTF-8"?>
<!DOCTYPE svg PUBLIC "-//W3C//DTD SVG 1.1//EN" "http://www.w3.org/Graphics/SVG/1.1/DTD/svg11.dtd">
<!-- Creator: CorelDRAW X7 -->
<svg xmlns="http://www.w3.org/2000/svg" xml:space="preserve" width="0.32in" height="0.32in" version="1.1" style="shape-rendering:geometricPrecision; text-rendering:geometricPrecision; image-rendering:optimizeQuality; fill-rule:evenodd; clip-rule:evenodd"
viewBox="0 0 320 320"
 xmlns:xlink="http://www.w3.org/1999/xlink">
 <defs>
  <style type="text/css">
   <![CDATA[
    .fil0 {fill:#535156;fill-rule:nonzero}
   ]]>
  </style>
 </defs>
 <g id="Layer_x0020_1">
  <metadata id="CorelCorpID_0Corel-Layer"/>
  <path class="fil0" d="M255 186c-9,0 -16,-7 -16,-16 0,-9 7,-16 16,-16 8,0 15,7 15,16 0,9 -7,16 -15,16zm-167 -64l7 -29c2,-7 9,-13 17,-13l111 0c8,0 15,6 17,13l7 29 -159 0zm132 54c0,6 -5,10 -10,10l-85 0c-5,0 -10,-4 -10,-10l0 -12c0,-6 5,-10 10,-10l85 0c5,0 10,4 10,10l0 12zm-138 10c-9,0 -16,-7 -16,-16 0,-9 7,-16 16,-16 9,0 16,7 16,16 0,9 -7,16 -16,16zm212 -93l-16 0c-5,0 -10,5 -10,10 0,0 1,5 1,5l-6 6 -6 -25c-4,-16 -18,-27 -34,-27l-14 0 0 -20c0,-6 -4,-13 -11,-13l-61 0c-7,0 -11,7 -11,13l0 20 -14 0c-16,0 -30,11 -34,27l-6 25 -6 -6c0,0 1,-5 1,-5 0,-5 -5,-10 -10,-10l-16 0c-6,0 -10,5 -10,10l0 4c0,6 4,10 10,10l16 0c0,0 1,0 1,0l6 6c-11,3 -20,13 -20,26l0 43c0,13 10,24 23,26l0 27c0,6 4,11 10,11l28 0c5,0 10,-5 10,-11l0 -27 105 0 0 27c0,6 4,11 10,11l28 0c6,0 10,-5 10,-11l0 -27c13,-2 23,-13 23,-26l0 -43c0,-13 -9,-23 -20,-26l6 -6c0,0 1,0 1,0l16 0c6,0 10,-4 10,-10l0 -4c0,-5 -4,-10 -10,-10z"/>
 </g>
</svg>
