<?xml version="1.0" encoding="UTF-8"?>
<!DOCTYPE svg PUBLIC "-//W3C//DTD SVG 1.1//EN" "http://www.w3.org/Graphics/SVG/1.1/DTD/svg11.dtd">
<!-- Creator: CorelDRAW X7 -->
<svg xmlns="http://www.w3.org/2000/svg" xml:space="preserve" width="1.5in" height="0.5in" version="1.1" style="shape-rendering:geometricPrecision; text-rendering:geometricPrecision; image-rendering:optimizeQuality; fill-rule:evenodd; clip-rule:evenodd"
viewBox="0 0 1500 500"
 xmlns:xlink="http://www.w3.org/1999/xlink">
 <defs>
  <style type="text/css">
   <![CDATA[
    .fil0 {fill:#333333;fill-rule:nonzero}
   ]]>
  </style>
 </defs>
 <g id="Layer_x0020_1">
  <metadata id="CorelCorpID_0Corel-Layer"/>
  <g id="_2045193778992">
   <path class="fil0" d="M399 154c0,1 -1,3 -1,4 -2,1 -3,3 -4,5 -2,2 -4,4 -6,6 -2,2 -4,4 -6,6 -5,4 -11,9 -17,14 -12,22 -22,43 -31,64 -4,9 -7,19 -11,28 -4,10 -7,20 -10,30 -3,9 -5,19 -7,28 -2,9 -3,18 -3,25 0,10 1,19 3,26 1,7 3,12 6,17 3,4 6,7 10,9 3,2 7,4 11,4 5,0 9,-1 13,-3 4,-1 7,-3 9,-5 3,-2 5,-4 5,-6 2,-2 2,-3 2,-4 0,0 0,-1 1,-1 0,0 1,0 1,1 0,0 0,0 0,1 0,1 1,1 1,3 0,2 -1,6 -3,9 -2,3 -6,6 -9,9 -4,3 -9,5 -15,7 -6,1 -13,2 -20,2 -8,0 -14,-1 -21,-4 -6,-3 -12,-7 -16,-12 -6,-5 -10,-10 -14,-16 -4,-6 -7,-12 -10,-18 -3,-6 -5,-13 -6,-18 -2,-6 -2,-11 -2,-16 0,-4 1,-11 4,-20 3,-9 6,-18 10,-29 4,-11 9,-22 15,-34 5,-13 11,-25 17,-38 -21,25 -39,47 -56,67 -6,8 -13,17 -20,24 -7,8 -14,16 -19,22 -5,6 -10,11 -14,15 -3,4 -6,6 -6,6 -3,0 -6,-1 -10,-2 -4,-2 -8,-4 -11,-6 -4,-3 -7,-6 -10,-9 -2,-3 -3,-7 -3,-11 0,-3 1,-10 5,-18 3,-8 7,-17 12,-28 5,-11 11,-23 18,-36 6,-14 13,-26 20,-40 7,-14 14,-28 21,-41 6,-14 12,-27 17,-38 5,-12 10,-22 12,-32 4,-10 5,-18 5,-23 0,0 -3,1 -6,4 -3,3 -8,7 -13,12 -4,4 -10,10 -16,17 -6,6 -12,14 -18,21 -6,8 -12,16 -18,24 -5,7 -11,15 -15,24 -4,7 -8,15 -11,22 -2,7 -4,14 -4,20 0,2 0,4 1,6 0,1 1,2 1,3 0,1 1,2 2,3 -2,2 -4,4 -6,4 -3,0 -6,-2 -8,-5 -2,-3 -5,-7 -6,-12 -1,-5 -3,-10 -4,-16 -1,-6 -2,-13 -2,-18 -1,-6 -1,-12 -1,-17 -1,-5 -1,-10 -1,-13 0,-4 1,-8 5,-12 2,-5 7,-10 11,-15 5,-5 11,-10 17,-15 7,-6 14,-11 20,-16 8,-5 15,-10 22,-15 8,-4 15,-8 22,-11 7,-4 13,-6 18,-8 5,-2 10,-3 14,-3 2,0 5,1 8,2 2,2 5,4 8,7 2,2 5,5 7,8 2,3 4,7 6,9 2,3 3,6 4,8 1,2 1,4 1,5 0,3 -1,7 -2,12 -1,4 -3,10 -6,17 -3,7 -6,14 -9,22 -4,8 -8,16 -12,25 -5,9 -9,17 -14,27 -4,9 -9,18 -14,27 -17,33 -36,68 -57,106 25,-32 48,-61 71,-90 10,-11 20,-23 30,-36 10,-12 20,-24 29,-35 10,-11 19,-21 27,-30 9,-10 15,-17 21,-23 4,-4 6,-7 9,-9 3,-2 5,-3 7,-3 3,0 5,1 7,2 2,2 4,4 6,7 2,3 4,5 5,9 2,3 3,6 4,9 1,4 2,6 2,9 0,3 0,6 1,7zm-7 172c7,0 14,0 21,0 8,0 14,2 20,4 6,2 11,5 15,8 5,4 9,9 11,15 0,1 0,2 0,3 -1,0 -2,1 -2,2 -2,0 -3,1 -4,2 0,-3 -1,-4 -3,-6 -2,-2 -4,-3 -6,-5 -3,-1 -6,-2 -9,-2 -3,-1 -5,-1 -7,-1 -8,-1 -16,-1 -24,1 -8,0 -15,1 -22,2 -7,2 -13,2 -18,4 -6,1 -10,1 -13,1 -1,0 -2,-1 -3,-2 -1,-1 -1,-3 -2,-5 0,-1 0,-3 0,-4 -1,-2 -1,-4 -1,-5 1,-3 1,-5 2,-7 1,0 2,-2 3,-3 4,-2 9,-6 14,-10 5,-4 9,-10 15,-15 5,-6 11,-12 16,-19 5,-6 11,-12 16,-19 5,-6 10,-12 14,-18 5,-6 9,-12 13,-17 3,-4 6,-8 8,-12 2,-3 2,-5 2,-6 -6,3 -13,5 -19,7 -3,1 -6,2 -9,3 -3,1 -5,2 -8,2 -3,1 -6,1 -8,2 -2,0 -4,0 -6,0 -3,0 -6,-2 -8,-5 -3,-3 -5,-6 -7,-10 -1,-4 -2,-8 -3,-12 -1,-5 -1,-9 -1,-11 0,-2 0,-5 1,-6 1,-2 2,-4 3,-6 2,-1 3,-2 5,-3 0,1 0,3 1,5 1,1 2,3 3,4 2,2 4,4 8,5 2,1 6,1 11,2 7,1 14,0 20,-1 8,-1 14,-2 20,-4 6,-1 10,-2 14,-4 4,0 7,-1 8,-1 2,0 5,1 8,4 2,2 5,5 7,9 2,3 4,7 5,10 1,4 2,7 2,9 0,1 -1,3 -4,7 -3,4 -7,10 -13,16 -5,7 -11,14 -17,22 -7,9 -15,17 -22,25 -8,9 -16,17 -24,25 -8,8 -15,15 -23,20zm246 -88c1,1 1,3 1,4 1,1 1,3 1,4 0,2 -1,3 -1,5 -1,1 -2,4 -4,8 -3,4 -6,9 -10,13 -4,6 -9,10 -16,16 -6,5 -14,9 -23,13 -5,9 -10,17 -15,23 -5,8 -10,13 -14,19 -4,4 -8,8 -12,11 -3,3 -6,4 -8,4 -2,0 -5,-1 -7,-2 -2,-2 -5,-3 -7,-6 -2,-3 -4,-5 -6,-9 -1,-2 -2,-6 -2,-10 0,-3 1,-5 2,-8 2,-3 4,-6 7,-9 2,-4 4,-7 7,-9 3,-4 6,-6 9,-8 2,-2 5,-4 7,-6 3,-1 4,-2 6,-2 7,-14 14,-26 19,-37 2,-5 4,-9 6,-14 2,-5 3,-9 4,-12 1,-4 2,-6 2,-9 -1,-2 -2,-3 -3,-3 -1,0 -3,2 -7,6 -3,4 -6,8 -11,14 -5,7 -10,13 -15,21 -6,8 -11,16 -16,24 -5,9 -10,16 -14,24 -5,9 -8,16 -11,22 -1,4 -2,8 -3,11 -1,3 -1,5 -1,6 0,3 0,6 1,8 1,1 1,3 1,4 0,0 0,1 0,2 -1,1 -2,1 -4,1 -2,0 -5,-1 -8,-2 -3,-1 -7,-4 -10,-7 -3,-3 -6,-6 -9,-10 -3,-4 -3,-8 -3,-13 0,-2 0,-5 2,-11 2,-5 4,-12 7,-20 2,-7 6,-16 9,-26 4,-10 8,-20 12,-31 4,-11 8,-22 13,-33 4,-12 9,-23 13,-34 4,-11 8,-22 11,-32 4,-11 8,-19 11,-28 2,-9 4,-16 6,-22 2,-7 2,-11 2,-15 0,-4 0,-6 -2,-8 -1,-1 -2,-2 -3,-2 -1,0 -2,0 -2,1 -1,0 -1,0 -1,0 0,0 0,0 0,-1 0,0 0,-1 0,-2 1,-1 2,-2 2,-3 1,-1 2,-2 4,-2 1,0 3,-1 6,-1 3,0 7,1 11,3 4,2 8,5 12,8 3,3 7,6 9,9 2,4 4,7 4,9 0,2 -1,7 -3,13 -2,6 -5,14 -8,23 -4,10 -7,20 -12,30 -4,12 -9,24 -13,36 -6,13 -10,25 -16,38 -5,12 -9,25 -14,36 3,-6 7,-12 11,-18 5,-6 9,-13 13,-18 4,-7 8,-13 13,-18 4,-5 7,-10 10,-14 4,-5 6,-8 8,-10 3,-3 5,-4 6,-4 3,0 5,1 9,3 2,2 5,5 7,9 3,4 5,8 6,13 2,4 2,10 2,14 0,5 0,9 -1,14 -1,5 -3,10 -6,16 -2,6 -4,12 -6,17 -3,6 -6,12 -8,17 4,-3 8,-5 12,-7 3,-3 7,-6 9,-10 4,-3 7,-7 10,-11 3,-4 6,-10 11,-16l1 1zm61 -25c-2,0 -4,1 -7,4 -3,3 -5,6 -8,11 -3,4 -6,9 -10,15 -2,6 -6,12 -8,19 -3,7 -6,14 -8,20 -3,7 -5,14 -7,20 3,-1 7,-4 11,-8 3,-3 7,-8 11,-13 3,-5 8,-11 11,-16 3,-6 7,-12 9,-18 3,-6 6,-11 7,-17 2,-4 3,-9 3,-13 0,-3 -1,-4 -4,-4zm34 34c1,-2 2,-5 3,-6 1,-3 1,-4 1,-3 1,0 2,0 2,2 0,1 1,2 1,4 0,1 0,4 0,7 -1,2 -1,5 -3,8 -2,5 -5,10 -9,17 -3,6 -8,13 -13,21 -5,7 -11,15 -16,22 -6,7 -12,14 -17,20 -6,5 -11,10 -16,13 -4,4 -9,6 -13,6 -6,0 -11,-2 -16,-4 -5,-3 -9,-7 -13,-11 -4,-5 -6,-10 -8,-15 -2,-6 -4,-11 -4,-16 0,-9 2,-18 4,-28 3,-10 7,-20 11,-30 5,-9 10,-19 15,-28 5,-9 11,-17 17,-24 5,-8 11,-13 15,-17 6,-4 10,-6 13,-6 4,0 8,1 12,3 5,2 10,5 14,8 5,4 8,7 12,11 2,3 4,6 4,9 0,3 -2,9 -4,16 -3,6 -6,13 -11,21 -4,7 -9,14 -15,23 -6,7 -11,14 -17,21 -6,7 -12,12 -18,17 -6,5 -11,8 -16,10 -1,1 -1,2 -1,4 0,1 0,2 0,4 0,5 1,7 3,9 3,2 5,3 8,3 3,0 7,-1 11,-5 4,-3 9,-8 14,-13 4,-6 10,-12 14,-19 6,-6 11,-13 15,-20 4,-7 8,-13 13,-19 3,-7 6,-11 8,-15zm151 -9c0,0 1,0 2,2 1,1 1,3 1,5 0,2 0,3 -1,6 0,2 -1,4 -2,8 -3,5 -6,11 -9,17 -4,6 -8,14 -12,21 -4,7 -8,15 -13,21 -4,8 -8,14 -12,20 -5,5 -9,10 -13,13 -3,4 -6,6 -9,6 -10,0 -18,-1 -24,-5 -6,-3 -10,-7 -13,-14 -4,-6 -6,-15 -7,-25 -1,-10 -1,-22 -1,-36 -5,7 -9,14 -13,20 -4,7 -7,14 -10,19 -3,6 -5,11 -7,16 -2,4 -3,8 -3,10 0,4 1,7 2,8 1,1 1,3 1,4 0,1 0,2 -1,2 -1,1 -1,2 -3,2 -2,0 -4,-1 -8,-2 -4,-2 -7,-5 -10,-7 -3,-4 -7,-7 -9,-10 -2,-4 -4,-9 -4,-13 0,-2 2,-6 3,-12 2,-5 4,-12 7,-19 2,-8 6,-17 9,-27 4,-9 8,-19 12,-30 4,-11 8,-23 13,-34 4,-12 8,-22 13,-33 4,-12 8,-23 12,-33 4,-10 6,-19 10,-27 2,-9 4,-17 6,-23 2,-7 3,-11 3,-15 0,-4 -1,-6 -2,-8 -2,-1 -3,-2 -4,-2 -1,0 -1,0 -2,1 0,0 -1,1 -1,1 0,0 0,-1 0,-1 0,-1 0,-2 0,-3 0,-1 1,-2 2,-3 1,0 2,-1 4,-2 1,0 3,0 6,0 3,0 7,0 11,3 4,2 8,4 12,8 3,2 7,6 9,9 2,3 4,6 4,9 0,2 -1,7 -4,13 -2,7 -4,15 -8,25 -4,10 -8,21 -13,32 -4,12 -9,25 -14,37 -5,14 -11,27 -16,40 -5,13 -10,25 -15,37 12,-17 22,-32 33,-45 4,-6 8,-11 12,-17 4,-5 9,-10 13,-15 4,-4 7,-7 10,-10 3,-2 6,-4 8,-4 5,0 9,2 11,4 4,2 6,4 8,7 2,3 3,6 4,10 1,3 1,6 1,8 0,3 -1,7 -4,11 -2,4 -5,9 -9,14 -4,4 -8,9 -13,14 -5,5 -10,9 -15,12 -5,4 -10,7 -14,10 -4,2 -8,3 -11,3 0,9 1,18 3,25 2,8 4,16 6,22 3,6 6,10 9,14 2,4 4,5 6,5 1,0 3,-1 5,-4 3,-2 5,-7 8,-11 4,-4 7,-10 10,-16 4,-6 8,-12 12,-18 8,-15 17,-31 28,-50l0 0zm-109 32c4,-2 8,-4 12,-8 5,-4 10,-8 15,-13 4,-5 8,-11 13,-17 4,-5 8,-11 10,-16 4,-5 6,-10 8,-14 3,-4 3,-7 3,-8 0,-2 0,-2 0,-2 -3,0 -5,2 -9,7 -5,4 -10,10 -15,17 -6,8 -12,16 -18,25 -7,10 -14,19 -20,29l1 0zm172 -177c2,0 5,1 8,3 2,2 5,4 8,8 2,3 3,6 4,9 1,4 1,7 0,10 -2,4 -4,9 -6,14 -2,5 -4,9 -6,13 -2,4 -4,7 -6,9 -2,3 -3,4 -5,4 -2,0 -4,0 -6,-2 -3,-1 -5,-3 -7,-6 -2,-3 -4,-7 -5,-12 -2,-5 -3,-11 -3,-18 0,-7 1,-13 3,-17 2,-4 4,-8 7,-10 2,-2 5,-3 7,-4 3,0 5,-1 7,-1zm-58 245c1,0 3,-1 5,-5 3,-2 6,-6 9,-11 3,-4 6,-10 10,-16 4,-6 7,-12 11,-18 8,-15 18,-32 28,-51 1,1 2,4 2,6 1,1 1,4 0,6 0,3 -1,6 -3,10 -2,6 -6,11 -9,18 -4,7 -7,14 -11,21 -4,7 -9,14 -13,22 -5,7 -9,13 -13,19 -5,6 -9,10 -12,14 -4,3 -7,5 -10,5 -2,0 -5,-1 -8,-2 -4,-2 -7,-5 -10,-7 -4,-3 -6,-6 -9,-10 -2,-4 -4,-8 -4,-13 0,-4 1,-8 4,-14 2,-7 4,-14 7,-22 3,-8 6,-16 10,-25 4,-9 7,-18 11,-27 2,-8 5,-16 7,-23 2,-8 3,-14 3,-18 0,-5 0,-7 -2,-9 -1,-1 -2,-2 -4,-2 0,0 -1,0 -2,1 0,0 0,0 0,0 0,0 -1,0 -1,-1 1,0 1,-1 1,-2 0,-1 1,-2 2,-2 1,-1 2,-2 4,-2 1,-1 3,-1 5,-1 3,0 8,1 12,3 4,2 8,4 11,8 4,2 7,6 10,9 2,4 4,6 4,8 0,2 -1,5 -2,10 -2,4 -4,9 -6,14 -2,6 -5,12 -7,19 -3,7 -6,14 -9,21 -3,7 -6,14 -9,21 -3,7 -5,13 -7,19 -2,6 -4,11 -6,15 -1,5 -2,7 -2,9 0,2 1,3 2,3l1 0z"/>
   <path class="fil0" d="M990 256c0,2 0,4 0,5 0,3 0,5 0,7 0,2 0,4 1,6 0,2 1,5 1,8 6,-4 12,-7 17,-11 6,-4 11,-9 15,-13 4,-5 8,-9 13,-13 3,-5 6,-10 8,-15 1,1 1,2 2,2 0,1 0,2 1,3 0,1 0,3 0,4 0,2 -1,5 -2,9 -1,3 -4,8 -8,13 -4,5 -10,11 -16,16 -7,6 -17,12 -27,18 0,4 1,8 1,12 1,4 1,7 1,11 0,8 -1,15 -2,20 -2,5 -5,10 -7,13 -2,4 -5,7 -8,8 -4,1 -7,3 -10,3 -3,-1 -7,-2 -10,-3 -3,-2 -6,-3 -9,-6 -4,-2 -7,-4 -9,-7 -3,-2 -5,-5 -6,-7 -4,-4 -5,-8 -5,-12 0,-2 1,-5 3,-7 2,-3 4,-5 7,-8 3,-2 6,-5 10,-7 3,-3 6,-5 9,-7l1 -1c-1,-6 -2,-12 -4,-19 0,-6 -2,-13 -3,-20 -1,-6 -1,-12 -2,-17 -1,-6 -1,-11 -1,-13 0,-6 0,-11 2,-15 0,-4 2,-8 3,-11 1,-3 3,-6 5,-8 1,-2 2,-4 3,-4 1,-1 2,-2 3,-3 2,-1 4,-3 7,-4 3,-1 6,-2 10,-3 4,0 9,-1 15,-1 6,0 11,1 14,1 5,2 7,3 9,4 2,2 4,3 4,4 2,2 2,2 2,3l0 2c0,2 -1,4 -2,4 0,0 -1,-1 -2,-2 0,-1 0,-1 -2,-1 -2,0 -4,1 -6,3 -3,2 -5,5 -7,8 -3,3 -5,7 -8,11 -2,4 -4,9 -6,13 -1,5 -2,9 -4,14 -1,5 -1,9 -1,13zm-25 88c0,0 1,-1 2,-2 0,-1 0,-3 0,-5 0,-2 0,-4 0,-6 0,-3 -1,-5 -2,-8 0,-2 0,-4 0,-6 -1,-2 -2,-3 -2,-5 -2,2 -4,4 -6,5 -2,1 -4,3 -5,4 -2,1 -3,3 -4,3 -2,2 -2,3 -2,4 0,1 1,3 2,5 1,1 3,3 5,4 2,2 4,4 6,5 2,1 4,2 6,2zm81 -5c1,0 3,-2 5,-4 2,-4 5,-7 9,-12 2,-5 6,-10 10,-16 3,-6 7,-12 10,-19 9,-14 19,-31 29,-50 0,0 1,1 1,2 0,1 0,1 1,3 0,0 0,2 0,3 0,2 0,4 -1,6 0,2 -1,5 -2,8 -3,5 -6,11 -9,18 -4,6 -7,13 -11,21 -4,7 -9,14 -14,21 -4,8 -8,14 -12,19 -5,6 -9,11 -13,15 -3,3 -6,5 -9,5 -2,0 -5,-1 -8,-3 -4,-1 -7,-4 -10,-7 -4,-2 -6,-6 -9,-10 -3,-4 -4,-8 -4,-13 0,-2 1,-6 3,-12 2,-6 4,-13 8,-22 3,-9 6,-19 10,-30 4,-11 9,-22 14,-34 4,-12 9,-24 13,-36 5,-12 10,-25 14,-36l-16 0c-17,0 -31,1 -42,1 -11,1 -20,2 -27,4 -6,2 -12,4 -16,6 -4,2 -8,5 -11,9 0,0 -1,0 -2,0 -1,0 -2,0 -2,-2l0 0c2,-8 4,-15 9,-20 4,-6 10,-10 16,-14 6,-4 13,-6 21,-8 8,-2 17,-4 25,-5 9,-1 19,-1 28,-2 10,0 19,0 29,0 4,-12 7,-23 10,-31 2,-10 4,-17 4,-21 0,-4 -1,-6 -2,-8 -2,-1 -3,-2 -4,-2 0,0 -1,0 -1,0 -1,1 -1,1 -1,1 0,0 -1,-1 -1,-1 0,0 1,-1 1,-3 0,0 1,-1 2,-2 1,-1 2,-2 4,-2 1,0 3,-1 5,-1 4,0 8,1 12,3 4,2 8,5 11,9 4,2 8,6 10,9 2,3 4,6 4,8 0,3 -2,8 -4,15 -2,8 -5,16 -9,26l9 0c16,0 29,0 40,0 12,0 21,-1 29,-2 7,0 13,-1 18,-2 5,-1 8,-2 11,-3 2,-1 4,-2 5,-3 1,-2 1,-3 2,-4 1,-2 2,-3 2,-4 0,-3 2,-4 3,-5 0,-1 1,-1 1,-1 2,0 2,1 2,2l0 1c0,5 -2,9 -3,13 -1,5 -3,9 -5,13 -2,4 -5,8 -7,10 -3,4 -7,6 -12,9 -4,2 -10,4 -16,5 -6,1 -14,2 -22,2l-69 0c-4,13 -10,26 -15,39 -6,14 -11,27 -17,41 -5,13 -10,26 -15,39 -5,12 -10,23 -13,33 -2,4 -3,8 -4,12 -1,3 -2,6 -3,8 0,3 0,4 0,5 -1,2 -1,2 -1,3 0,2 1,3 2,3zm148 -115c0,-2 0,-4 -2,-6 -1,-1 -2,-3 -3,-4 -2,-1 -5,-1 -8,-1 -3,0 -6,1 -10,4 -3,3 -7,7 -10,12 -3,5 -7,11 -11,17 -4,6 -7,13 -10,20 -3,6 -6,12 -9,18 -2,7 -5,13 -7,17 -2,5 -2,9 -3,13 0,2 0,4 1,4 1,0 2,-2 5,-6 3,-5 6,-10 10,-16 4,-7 8,-14 13,-21 4,-7 8,-14 12,-20 4,-7 9,-12 12,-17 3,-4 5,-6 7,-6 3,0 6,1 10,2 3,2 7,4 10,7 3,2 6,5 9,8 2,3 3,6 3,10 0,0 -1,2 -1,5 -2,3 -2,6 -4,10 -2,4 -3,8 -5,13 -2,4 -4,8 -5,13 -2,5 -4,10 -6,14 -1,4 -3,8 -3,12 -2,3 -2,6 -2,8 0,2 1,3 2,3 0,0 2,-1 5,-4 2,-3 4,-7 7,-11 3,-5 6,-10 9,-17 4,-6 8,-12 11,-18 8,-15 18,-31 28,-50 1,1 1,3 2,5 0,2 0,4 0,7 -1,2 -1,6 -3,10 -3,5 -6,11 -9,17 -4,7 -7,14 -11,21 -3,8 -7,15 -11,22 -5,7 -8,14 -12,19 -3,6 -7,10 -9,14 -4,4 -6,5 -7,5 -4,0 -7,-1 -11,-3 -4,-2 -7,-5 -12,-8 -3,-3 -6,-7 -9,-11 -3,-5 -4,-10 -4,-15 0,-1 1,-2 1,-5 1,-2 2,-5 2,-8 2,-2 2,-6 4,-9 1,-3 2,-7 4,-10 2,-8 6,-17 10,-26 -3,5 -7,10 -10,15 -2,4 -6,10 -9,15 -3,6 -7,12 -10,18 -5,7 -8,14 -10,19 -2,6 -4,11 -6,15 -1,4 -2,7 -3,10 -1,2 -2,3 -4,3 -2,0 -5,-1 -9,-3 -3,-2 -7,-5 -11,-9 -4,-4 -7,-8 -9,-14 -3,-6 -4,-12 -4,-19 0,-8 1,-16 3,-25 2,-9 5,-19 8,-29 4,-10 8,-20 12,-30 5,-9 10,-17 16,-25 5,-7 10,-13 16,-18 6,-5 11,-7 16,-7 6,0 12,2 17,4 5,4 9,7 13,11 4,4 6,8 8,12 2,4 3,7 3,8 0,2 0,4 -1,5 0,2 -1,2 -2,3 -1,1 -2,2 -4,3l0 0zm227 -46c3,0 5,1 8,4 3,2 7,6 9,12 4,5 7,11 9,18 2,8 3,16 3,25 0,7 -2,14 -5,22 -3,7 -8,15 -13,22 -6,8 -12,14 -19,21 -7,8 -14,14 -21,20 -8,6 -15,12 -23,17 -7,4 -14,8 -20,12 -5,2 -9,4 -13,5 -4,2 -7,2 -9,2 -2,0 -5,-1 -9,-2 -3,-2 -7,-5 -9,-7 -4,-3 -7,-6 -9,-10 -3,-4 -4,-8 -4,-13 0,-4 1,-8 3,-14 2,-7 4,-13 8,-21 2,-8 6,-16 9,-25 3,-9 7,-17 9,-25 4,-9 7,-16 9,-24 2,-7 3,-13 4,-18 0,-1 -1,-2 -2,-2 0,0 0,0 -1,0 -1,2 -4,5 -7,9 -3,4 -7,9 -11,14 -4,6 -8,12 -13,18 -4,7 -9,15 -14,21 -4,8 -9,15 -13,23 -5,7 -9,14 -12,21 -4,7 -7,13 -10,19 -3,5 -5,10 -6,14 -1,3 -1,5 -1,6 0,0 0,0 0,0 0,0 0,1 0,1 0,3 1,6 2,8 1,1 1,3 1,3 0,2 0,2 -1,3 0,1 -1,1 -2,1 -2,0 -5,-1 -8,-2 -5,-2 -7,-5 -11,-7 -3,-3 -6,-6 -8,-10 -3,-4 -4,-8 -4,-13 0,-4 1,-8 3,-15 2,-6 5,-13 7,-21 4,-8 7,-16 10,-24 4,-9 7,-18 11,-27 2,-8 5,-16 7,-24 2,-8 3,-14 3,-19 0,-4 0,-7 -2,-8 -1,-2 -2,-3 -4,-3 0,0 -1,1 -2,1 0,0 0,0 0,0 0,0 0,0 0,-1 0,-1 0,-1 0,-2 0,-1 1,-2 2,-3 1,0 2,-1 4,-2 1,0 3,0 6,0 3,0 7,1 11,3 4,2 8,5 12,7 4,4 7,7 9,10 3,3 4,7 4,9 0,1 0,4 -1,6 -1,3 -2,7 -3,11 -2,3 -3,8 -5,12 -2,5 -4,10 -6,15 2,-3 4,-7 7,-12 3,-5 6,-9 10,-15 4,-5 8,-11 11,-17 4,-5 8,-10 12,-15 4,-4 7,-8 11,-10 2,-3 5,-4 8,-4 2,0 6,1 11,3 4,2 8,5 12,7 3,4 6,6 9,10 3,3 4,7 4,9 0,2 -1,6 -4,13 -2,7 -5,14 -8,23 -4,9 -7,18 -11,28 -4,9 -9,19 -12,27 -3,9 -7,17 -9,23 -2,7 -3,12 -3,14 0,2 1,2 2,2 3,0 7,-1 11,-5 5,-4 11,-8 17,-15 6,-7 14,-16 21,-26 6,-10 13,-21 19,-32 5,-11 10,-23 13,-35 4,-11 6,-23 6,-34 0,-2 0,-4 -1,-4 -1,-2 -1,-2 -2,-3 -1,-1 -2,-2 -2,-3 0,0 0,0 1,-1 1,0 2,-1 2,-1 1,0 2,0 3,0z"/>
  </g>
 </g>
</svg>
